<svg xmlns="http://www.w3.org/2000/svg" width="30" height="30" viewBox="0 0 30 30" fill="none">
<path fill-rule="evenodd" clip-rule="evenodd" d="M3.06641 0.750244C1.40955 0.750244 0.0664062 2.09339 0.0664062 3.75024V19.3336V26.2185C0.0664062 27.4605 1.48951 28.1644 2.47668 27.4107L8.68017 22.6743C9.46457 22.0754 10.4241 21.751 11.411 21.751H15.0342H27.002C28.6588 21.751 30.002 20.4078 30.002 18.751V3.75024C30.002 2.09339 28.6588 0.750244 27.002 0.750244H3.06641ZM8.57617 6.71518C7.79135 6.71518 7.15512 7.3514 7.15512 8.13623C7.15512 8.92106 7.79135 9.55728 8.57617 9.55728H20.5762C21.361 9.55728 21.9972 8.92106 21.9972 8.13623C21.9972 7.3514 21.361 6.71518 20.5762 6.71518H8.57617ZM8.57617 12.7152C7.79135 12.7152 7.15512 13.3514 7.15512 14.1362C7.15512 14.9211 7.79135 15.5573 8.57617 15.5573H14.5762C15.361 15.5573 15.9972 14.9211 15.9972 14.1362C15.9972 13.3514 15.361 12.7152 14.5762 12.7152H8.57617Z" fill="currentColor"/>
</svg>