<svg xmlns="http://www.w3.org/2000/svg" width="15" height="14" viewBox="0 0 15 14" fill="none">
  <path d="M13.9615 0.522407C13.9615 0.52095 13.96 0.52095 13.96 0.519493C13.9288 0.459753 13.8841 0.405841 13.8291 0.362129C13.7756 0.318416 13.7146 0.286361 13.6506 0.265962C13.6491 0.265962 13.6476 0.264505 13.6461 0.264505C13.6209 0.255762 13.5941 0.251391 13.5673 0.24702C13.5599 0.245563 13.5524 0.242649 13.5435 0.242649C13.5182 0.239734 13.4944 0.239734 13.4691 0.241191C13.4587 0.241191 13.4498 0.239734 13.4394 0.241191C13.368 0.245563 13.2966 0.265962 13.2312 0.298017L0.318911 6.57073C0.192481 6.63047 0.0957992 6.73829 0.0511768 6.86943C0.0377901 6.90586 0.0318404 6.9452 0.0273782 6.98308C0.0139914 7.06031 0.0169663 7.14045 0.0422523 7.21622C0.0838999 7.34881 0.177607 7.45809 0.304037 7.52074L3.58081 9.20804C3.65964 9.24884 3.74592 9.26924 3.83516 9.26924C4.03299 9.27069 4.21445 9.16578 4.31113 8.99676C4.45244 8.74469 4.35278 8.43142 4.091 8.29591L1.69626 7.06322L11.3273 2.38309L5.45347 8.99093C5.44901 8.99531 5.44752 9.00113 5.44306 9.0055C5.29729 9.09876 5.20209 9.25612 5.20209 9.4368V13.2412C5.20358 13.3796 5.26159 13.5122 5.36274 13.6099C5.46388 13.7075 5.60072 13.7599 5.74203 13.7585V13.7599C6.03951 13.7599 6.28047 13.5283 6.28047 13.2427V9.65536L12.6927 2.43846L11.36 11.9575L7.9791 10.3664C7.71285 10.2411 7.39306 10.346 7.2577 10.6025C7.19523 10.7263 7.18631 10.8691 7.23242 11.0002C7.27853 11.1314 7.37669 11.2377 7.50461 11.296L11.5221 13.1888C11.5965 13.2237 11.6768 13.2412 11.7601 13.2412C11.7631 13.2412 11.7661 13.2398 11.769 13.2398C11.778 13.2398 11.7884 13.2427 11.7973 13.2427C12.065 13.2441 12.2926 13.0533 12.3313 12.7939L13.9972 0.902704C14.0344 0.78031 14.0269 0.644802 13.9615 0.522407Z" fill="white"/>
</svg>